<svg xmlns="http://www.w3.org/2000/svg" xmlns:xlink="http://www.w3.org/1999/xlink" version="1.1" class="marks" width="650" height="371" viewBox="0 0 650 371"><rect width="650" height="371" fill="white"/><g fill="none" stroke-miterlimit="10" transform="translate(50,5)"><g class="mark-group role-frame root" role="graphics-object" aria-roledescription="group mark container"><g transform="translate(0,0)"><path class="background" aria-hidden="true" d="M0.5,0.5h550v300h-550Z" stroke="#ddd"/><g><g class="mark-group role-axis" role="graphics-symbol" aria-roledescription="axis" aria-label="X-axis titled 'Time' for a time scale with values from Sunday, 30 June 2019, 8:00:00 PM to Tuesday, 29 June 2021, 8:00:00 PM"><g transform="translate(0.5,300.5)"><path class="background" aria-hidden="true" d="M0,0h0v0h0Z" pointer-events="none"/><g><g class="mark-rule role-axis-tick" pointer-events="none"><line transform="translate(0,0)" x2="0" y2="5" stroke="#888" stroke-width="1" opacity="1"/><line transform="translate(69,0)" x2="0" y2="5" stroke="#888" stroke-width="1" opacity="1"/><line transform="translate(139,0)" x2="0" y2="5" stroke="#888" stroke-width="1" opacity="1"/><line transform="translate(207,0)" x2="0" y2="5" stroke="#888" stroke-width="1" opacity="1"/><line transform="translate(276,0)" x2="0" y2="5" stroke="#888" stroke-width="1" opacity="1"/><line transform="translate(345,0)" x2="0" y2="5" stroke="#888" stroke-width="1" opacity="1"/><line transform="translate(415,0)" x2="0" y2="5" stroke="#888" stroke-width="1" opacity="1"/><line transform="translate(482,0)" x2="0" y2="5" stroke="#888" stroke-width="1" opacity="1"/></g><g class="mark-text role-axis-label" pointer-events="none"><text text-anchor="end" transform="translate(0.12557077625570776,7) rotate(320) translate(0,9)" font-family="sans-serif" font-size="11px" fill="#000" opacity="1">July</text><text text-anchor="end" transform="translate(69.44063926940639,7) rotate(320) translate(0,9)" font-family="sans-serif" font-size="11px" fill="#000" opacity="1">October</text><text text-anchor="end" transform="translate(138.78710045662098,7) rotate(320) translate(0,9)" font-family="sans-serif" font-size="11px" fill="#000" opacity="1">2020</text><text text-anchor="end" transform="translate(207.31735159817353,7) rotate(320) translate(0,9)" font-family="sans-serif" font-size="11px" fill="#000" opacity="1">April</text><text text-anchor="end" transform="translate(275.87899543378995,7) rotate(320) translate(0,9)" font-family="sans-serif" font-size="11px" fill="#000" opacity="1">July</text><text text-anchor="end" transform="translate(345.19406392694066,7) rotate(320) translate(0,9)" font-family="sans-serif" font-size="11px" fill="#000" opacity="1">October</text><text text-anchor="end" transform="translate(414.54052511415523,7) rotate(320) translate(0,9)" font-family="sans-serif" font-size="11px" fill="#000" opacity="1">2021</text><text text-anchor="end" transform="translate(482.3173515981735,7) rotate(320) translate(0,9)" font-family="sans-serif" font-size="11px" fill="#000" opacity="1">April</text></g><g class="mark-rule role-axis-domain" pointer-events="none"><line transform="translate(0,0)" x2="550" y2="0" stroke="#888" stroke-width="1" opacity="1"/></g><g class="mark-text role-axis-title" pointer-events="none"><text text-anchor="middle" transform="translate(275,57.577751131257415)" font-family="sans-serif" font-size="17px" font-weight="bold" fill="#000" opacity="1">Time</text></g></g><path class="foreground" aria-hidden="true" d="" pointer-events="none" display="none"/></g></g><g class="mark-group role-axis" role="graphics-symbol" aria-roledescription="axis" aria-label="Y-axis titled 'Standardized Stock Price' for a linear scale with values from −0.1 to 1.1"><g transform="translate(0.5,0.5)"><path class="background" aria-hidden="true" d="M0,0h0v0h0Z" pointer-events="none"/><g><g class="mark-rule role-axis-tick" pointer-events="none"><line transform="translate(0,275)" x2="-5" y2="0" stroke="#888" stroke-width="1" opacity="1"/><line transform="translate(0,225)" x2="-5" y2="0" stroke="#888" stroke-width="1" opacity="1"/><line transform="translate(0,175)" x2="-5" y2="0" stroke="#888" stroke-width="1" opacity="1"/><line transform="translate(0,125)" x2="-5" y2="0" stroke="#888" stroke-width="1" opacity="1"/><line transform="translate(0,75)" x2="-5" y2="0" stroke="#888" stroke-width="1" opacity="1"/><line transform="translate(0,25)" x2="-5" y2="0" stroke="#888" stroke-width="1" opacity="1"/></g><g class="mark-text role-axis-label" pointer-events="none"><text text-anchor="end" transform="translate(-7,278)" font-family="sans-serif" font-size="11px" fill="#000" opacity="1">0.0</text><text text-anchor="end" transform="translate(-7,228)" font-family="sans-serif" font-size="11px" fill="#000" opacity="1">0.2</text><text text-anchor="end" transform="translate(-7,178)" font-family="sans-serif" font-size="11px" fill="#000" opacity="1">0.4</text><text text-anchor="end" transform="translate(-7,128.00000000000003)" font-family="sans-serif" font-size="11px" fill="#000" opacity="1">0.6</text><text text-anchor="end" transform="translate(-7,78.00000000000003)" font-family="sans-serif" font-size="11px" fill="#000" opacity="1">0.8</text><text text-anchor="end" transform="translate(-7,28.00000000000001)" font-family="sans-serif" font-size="11px" fill="#000" opacity="1">1.0</text></g><g class="mark-rule role-axis-domain" pointer-events="none"><line transform="translate(0,300)" x2="0" y2="-300" stroke="#888" stroke-width="1" opacity="1"/></g><g class="mark-text role-axis-title" pointer-events="none"><text text-anchor="middle" transform="translate(-26.29150390625,150) rotate(-90) translate(0,-4)" font-family="sans-serif" font-size="17px" font-weight="bold" fill="#00aedb" opacity="1">Standardized Stock Price</text></g></g><path class="foreground" aria-hidden="true" d="" pointer-events="none" display="none"/></g></g><g class="mark-group role-axis" role="graphics-symbol" aria-roledescription="axis" aria-label="Y-axis titled 'Standardized Sentiment Value' for a linear scale with values from −0.1 to 1.1"><g transform="translate(550.5,0.5)"><path class="background" aria-hidden="true" d="M0,0h0v0h0Z" pointer-events="none"/><g><g class="mark-rule role-axis-tick" pointer-events="none"><line transform="translate(0,275)" x2="5" y2="0" stroke="#888" stroke-width="1" opacity="1"/><line transform="translate(0,225)" x2="5" y2="0" stroke="#888" stroke-width="1" opacity="1"/><line transform="translate(0,175)" x2="5" y2="0" stroke="#888" stroke-width="1" opacity="1"/><line transform="translate(0,125)" x2="5" y2="0" stroke="#888" stroke-width="1" opacity="1"/><line transform="translate(0,75)" x2="5" y2="0" stroke="#888" stroke-width="1" opacity="1"/><line transform="translate(0,25)" x2="5" y2="0" stroke="#888" stroke-width="1" opacity="1"/></g><g class="mark-text role-axis-label" pointer-events="none"><text text-anchor="start" transform="translate(7,278)" font-family="sans-serif" font-size="11px" fill="#000" opacity="1">0.0</text><text text-anchor="start" transform="translate(7,228)" font-family="sans-serif" font-size="11px" fill="#000" opacity="1">0.2</text><text text-anchor="start" transform="translate(7,178)" font-family="sans-serif" font-size="11px" fill="#000" opacity="1">0.4</text><text text-anchor="start" transform="translate(7,128.00000000000003)" font-family="sans-serif" font-size="11px" fill="#000" opacity="1">0.6</text><text text-anchor="start" transform="translate(7,78.00000000000003)" font-family="sans-serif" font-size="11px" fill="#000" opacity="1">0.8</text><text text-anchor="start" transform="translate(7,28.00000000000001)" font-family="sans-serif" font-size="11px" fill="#000" opacity="1">1.0</text></g><g class="mark-rule role-axis-domain" pointer-events="none"><line transform="translate(0,300)" x2="0" y2="-300" stroke="#888" stroke-width="1" opacity="1"/></g><g class="mark-text role-axis-title" pointer-events="none"><text text-anchor="middle" transform="translate(26.29150390625,150) rotate(90) translate(0,-4)" font-family="sans-serif" font-size="17px" font-weight="bold" fill="#d11141" opacity="1">Standardized Sentiment Value</text></g></g><path class="foreground" aria-hidden="true" d="" pointer-events="none" display="none"/></g></g><g class="mark-line role-mark layer_0_marks" clip-path="url(#clip1)" role="graphics-object" aria-roledescription="line mark container"><path aria-label="Time: Jun 30, 2019; Close/Last: 0.0514488896941" role="graphics-symbol" aria-roledescription="line mark" d="M0,262.1377775764645L0.7534246575342466,262.28612032748646L1.5068493150684932,261.700109841579L3.0136986301369864,261.80202470869335L5.273972602739726,261.958294171602L6.027397260273973,261.9741475953753L6.780821917808219,261.4724999716903L7.534246575342466,261.4906181702884L8.287671232876713,261.1237246486768L10.547945205479452,260.6469895480642L11.301369863013697,260.71040324315754L12.054794520547945,260.56998720402225L12.808219178082192,260.64472477323943L13.561643835616438,260.38201089356687L15.821917808219178,260.5235593201146L16.575342465753426,260.26933834603494L17.328767123287673,260.0026611104191L18.082191780821915,262.04435561494296L18.835616438356162,262.08851872402585L21.095890410958905,261.6508509891404L21.84931506849315,261.2833912738226L22.602739726027394,261.320193864725L23.356164383561644,261.75956018072907L24.10958904109589,261.7318166891257L26.36986301369863,262.07266530025254L27.123287671232877,261.9350802296482L27.876712328767123,261.7839065100953L28.63013698630137,261.5076039814742L29.383561643835616,261.6938817108109L31.643835616438356,262.03359793452535L32.397260273972606,261.6944479045171L33.15068493150685,262.5652538246385L33.90410958904109,262.7905989197024L34.657534246575345,262.54713562604036L36.917808219178085,262.15702816247494L37.671232876712324,262.21194895197544L38.42465753424658,262.4967443861894L39.178082191780824,262.4220068169722L39.93150684931506,263.0306650511273L42.19178082191781,262.8268353168986L42.945205479452056,262.8789251378682L43.6986301369863,262.7934298882334L44.45205479452055,262.4469193400446L45.20547945205479,262.2261037946302L48.21917808219178,262.26007541700164L48.97260273972603,262.50523729178224L49.726027397260275,262.00132489327245L50.47945205479452,262.1219241526911L52.73972602739726,261.8761960842043L53.49315068493151,261.6638734443828L54.24657534246575,261.00935352002625L55,261.07899534588773L55.75342465753425,261.11693032420254L58.013698630136986,261.25225061998214L58.76712328767123,261.1401442661563L59.52054794520548,261.2137494479611L60.273972602739725,261.0376632053358L61.02739726027397,261.3762470416379L63.28767123287671,261.34170922556024L64.04109589041096,262.361990284116L64.79452054794521,262.05114993941726L65.54794520547945,261.2664054626369L66.3013698630137,261.2907517920031L69.31506849315069,261.1458062032182L70.06849315068493,261.234132421384L70.82191780821918,261.80598806463667L71.57534246575342,261.8965790576272L74.58904109589041,261.4085200828908L75.34246575342465,261.1548653025173L79.10958904109589,260.4510865257222L79.86301369863013,260.39843051104646L80.6164383561644,260.29311848169493L81.36986301369863,260.1674234789206L82.12328767123287,260.45165271942835L84.38356164383562,260.6469895480642L85.13698630136986,260.5292212571765L85.89041095890411,260.5801786907337L86.64383561643835,258.0323070128752L87.3972602739726,256.4214859187625L89.65753424657534,256.4452660544225L90.41095890410958,257.0958226228357L91.16438356164385,257.1643320612848L91.91780821917808,257.1694278046405L92.67123287671232,257.2605849913372L94.93150684931507,257.02504840956186L95.68493150684932,257.0392032522167L96.43835616438356,256.5092459432221L97.1917808219178,256.0019363824752L97.94520547945206,255.91134538948464L100.20547945205479,255.461221393063L100.95890410958904,255.1871836392667L101.71232876712328,255.40346963503154L102.46575342465754,255.22002287422572L103.21917808219179,255.06035624907992L105.47945205479452,255.1837864770295L106.23287671232877,254.64420387502975L106.98630136986301,255.057525280549L107.73972602739725,254.9097487232332L108.4931506849315,256.1434848090229L110.75342465753425,255.9566408859799L111.5068493150685,256.3767566159735L112.26027397260273,256.24256870760627L113.76712328767124,256.319004857942L116.02739726027397,256.03987136078996L116.78082191780821,255.9645675978666L117.53424657534246,256.14405100272904L118.28767123287672,256.29465852857584L119.04109589041096,255.9821196027585L121.3013698630137,255.77602509370507L122.05479452054794,255.24889875324146L122.8082191780822,255.03034798265182L123.56164383561644,254.63514477573068L124.31506849315068,254.70818376382925L126.57534246575342,253.39971010882243L127.32876712328766,253.54182472907632L128.08219178082192,252.74009444111022L128.83561643835617,252.12350949506848L129.58904109589042,252.0357494706089L131.84931506849315,251.26402744907088L132.6027397260274,250.92261264423786L134.1095890410959,250.60044842541532L134.86301369863014,250.632155272962L137.12328767123287,251.5199470042691L137.87671232876713,251.31441868892185L139.38356164383563,250.63894959743627L140.13698630136986,249.91705262204306L142.3972602739726,249.43408939066234L143.15068493150685,248.44211801741613L143.9041095890411,247.13534294352783L144.65753424657532,247.74683214621388L145.4109589041096,247.9274479384887L147.67123287671234,245.28275713687168L148.42465753424656,244.54330815658653L149.17808219178082,245.642856334009L149.93150684931507,245.92651938081056L150.6849315068493,246.09581129896162L153.6986301369863,244.01788039724153L154.45205479452056,242.75187127019896L155.2054794520548,242.6023961317646L155.95890410958904,243.02024708693338L158.21917808219177,243.40525880714313L158.97260273972603,242.90247879604573L159.72602739726025,242.10471186402293L160.47945205479454,238.7177411135898L161.2328767123288,238.1651360563476L163.4931506849315,230.83689091712057L164.24657534246575,224.77522109864228L165,233.40174840616473L165.75342465753423,232.5943561811367L166.50684931506848,232.6447474209877L168.76712328767124,231.33061182891893L169.5205479452055,231.1550917799998L170.27397260273972,231.556523117689L171.02739726027397,229.47802602226272L171.78082191780823,229.70280492362048L174.7945205479452,226.397932260585L175.54794520547946,223.05625700664714L176.30136986301372,224.07597187149668L177.05479452054794,223.98594707221235L179.31506849315068,227.79133497152048L180.06849315068493,229.70959924809478L180.82191780821915,230.90483416186345L181.5753424657534,236.55544734964724L182.3287671232877,237.1788266201633L184.58904109589042,232.89670362024256L185.34246575342465,232.7896930097725L186.0958904109589,232.56378172100239L186.84931506849315,233.97700121165454L187.60273972602738,235.1694051568923L189.86301369863014,240.5754226636017L190.6164383561644,238.46182155839156L191.36986301369865,239.09029657226333L192.12328767123287,243.26201179947685L192.87671232876713,244.05071963220055L195.13698630136986,249.80041671856776L195.8904109589041,250.64234675967342L196.64383561643834,254.5479509449773L197.39726027397262,250.78729234845824L198.15068493150687,250.79352047922637L200.41095890410958,250.41077353384142L201.16438356164383,246.40721783736655L201.91780821917808,244.46800439366316L202.6712328767123,245.0959132138287L203.42465753424656,245.87726052837198L205.68493150684932,246.56971543104328L206.43835616438358,245.33144979560407L207.1917808219178,247.73437588467766L207.94520547945206,249.26819463474843L208.6986301369863,247.82213590913724L210.95890410958904,245.7708161116081L211.71232876712327,244.11696429582489L212.46575342465755,243.92502462942625L213.2191780821918,242.55710063526936L216.23287671232876,238.14362069551237L216.986301369863,234.80647499122398L217.73972602739724,233.67748474107964L218.4931506849315,232.8066788209582L219.24657534246575,232.31522268398464L221.5068493150685,232.7415665447463L222.26027397260273,236.11834580846798L223.013698630137,233.54839257606812L223.76712328767124,235.04767351006126L224.52054794520546,233.9424633955769L226.78082191780823,229.7752777180129L227.53424657534248,231.45290966945612L228.28767123287673,229.6756276257233L229.04109589041096,230.73044650035672L229.7945205479452,235.29170299742947L232.05479452054794,231.9019012784654L232.80821917808217,231.50443329671947L233.56164383561642,230.69081294092337L234.3150684931507,230.8346261422958L235.06849315068493,228.60495532731662L237.32876712328766,229.06527081044968L238.08219178082192,229.17171522721353L238.83561643835617,230.2163426151355L239.5890410958904,229.5159610005775L240.34246575342465,229.75149758235287L242.6027397260274,228.93278148320107L243.35616438356166,229.25098234608024L244.1095890410959,228.82350609790626L244.86301369863014,228.14180887565254L245.6164383561644,228.74876852868906L248.63013698630135,228.63609598115707L249.38356164383563,228.55909363711515L250.1369863013699,229.37554496144222L250.8904109589041,227.7228255330714L253.15068493150685,224.1501432470077L253.9041095890411,225.0866276370472L254.65753424657532,225.0073605181805L255.41095890410958,226.05934842428294L256.16438356164383,224.854488217509L258.4246575342466,221.21612746152715L259.17808219178085,221.7398566397536L259.93150684931504,216.962314146916L260.6849315068493,219.9184114869379L261.43835616438355,222.04503504739043L263.6986301369863,218.89586565355742L264.45205479452056,219.3924175338867L265.2054794520548,218.84547441370643L265.95890410958907,218.15641667327228L266.71232876712327,218.32967194736665L268.972602739726,218.70222740604018L269.7260273972603,218.27984690122187L270.47945205479454,220.59727774066067L271.23287671232873,219.17443295700326L271.98630136986304,220.6601252420478L274.24657534246575,217.85123826563546L275,213.86183741181537L275.75342465753425,211.60725407376376L276.5068493150685,206.56643150754738L279.52054794520546,197.34200364628748L280.2739726027397,196.30700155137077L281.027397260274,197.6647340588162L281.7808219178082,196.05674393323446L282.5342465753425,187.54288917324396L284.7945205479452,190.2374050210058L285.5479452054795,189.11973864498526L286.3013698630137,187.46588682920205L287.05479452054794,190.03470767418952L287.8082191780822,190.02338380006572L290.06849315068496,181.9743740728578L290.8219178082192,186.20044389586567L291.5753424657534,184.8432775821264L292.3287671232877,189.33092889739441L293.0821917808219,194.77035183276905L295.3424657534247,187.8288169948703L296.0958904109589,191.40206547464018L296.8493150684931,190.1213353112367L297.60273972602744,190.77925239783036L298.35616438356163,193.99126929305055L300.6164383561644,190.92023463067184L301.3698630136986,190.80699588943372L302.1232876712329,190.9191022432595L302.8767123287671,190.66091791323652L303.63013698630135,192.74847410796184L305.8904109589041,194.68145942089708L306.64383561643837,197.18290321484787L307.3972602739726,186.97046733628514L308.1506849315068,183.2200002264775L308.9041095890411,181.53783872538477L311.16438356164383,171.067218516799L311.9178082191781,168.1541518984475L312.67123287671234,168.63881371094683L313.4246575342466,161.6576453136147L314.17808219178085,158.93142261830621L316.43835616438355,160.95726369905677L317.1917808219178,160.4397626515984L317.94520547945206,153.08886976412373L318.6986301369863,148.24338402654323L319.4520547945205,149.67868507173677L321.71232876712327,133.9271761655098L322.4657534246576,140.51483993703928L323.2191780821918,148.35096083071943L323.972602739726,159.77958079017998L324.7260273972602,156.57492441314028L327.7397260273973,181.51858813937426L328.4931506849315,171.30728464822388L329.2465753424658,169.87481457156125L330,169.4841409142896L332.26027397260276,156.20689850411625L333.01369863013696,147.6743593518215L333.7671232876712,149.93913417658453L334.5205479452055,155.12829949382282L335.2739726027397,149.8287264038773L337.5342465753425,147.77910518746677L338.2876712328767,154.90182201134652L339.041095890411,167.32128095664092L339.7945205479452,165.2178713381422L340.54794520547944,159.68332786012752L342.8082191780822,155.75960547622557L343.56164383561645,156.3626017733187L344.3150684931507,153.54861905355062L345.0684931506849,148.12731431677406L345.8219178082192,157.48932724863835L348.0821917808219,154.49133157435824L348.83561643835617,157.8035647555742L349.5890410958904,154.59890837853447L350.3424657534247,154.42338832961534L351.09589041095893,152.1359657566047L353.35616438356163,149.78626187591303L354.1095890410959,148.55479056494812L354.86301369863014,144.40742166710078L355.6164383561644,147.9234845825454L356.3698630136986,150.5308065995539L358.63013698630135,153.03338278091704L359.38356164383566,155.550113804935L360.13698630136986,155.3519460077682L360.8904109589041,154.46019092051776L361.6438356164383,155.92097068248992L363.90410958904107,156.0200545810733L364.6575342465754,154.7744284274536L365.4109589041096,160.05701570621346L366.16438356164383,158.69531984282463L366.9178082191781,165.1470971248684L369.17808219178085,161.61687936676896L369.93150684931504,154.99524397286802L370.6849315068493,155.82188678390654L371.43835616438355,150.97809962744458L372.1917808219178,153.282508011641L374.45205479452056,155.74261966503983L375.20547945205476,158.8283753637795L375.95890410958907,156.91180966832377L376.71232876712327,158.43203976944596L377.4657534246575,159.3549355105369L379.7260273972603,159.471005220306L380.47945205479454,149.98159870454884L381.2328767123288,137.2337474096638L381.986301369863,133.65823415506918L382.7397260273973,136.39294975597056L385,127.26590721217545L385.75342465753425,117.77366972788735L386.5068493150685,112.50240632325136L388.013698630137,109.17318733084969L390.2739726027397,114.31422618306178L391.027397260274,109.45628418394506L391.7808219178082,113.96884802228541L392.5342465753425,107.01598931026285L393.2876712328767,105.41366112174302L395.54794520547944,93.31976355750832L396.30136986301375,91.02101711037386L397.05479452054794,103.87361424090415L397.8082191780822,97.47845632947949L398.5616438356164,102.31375058034858L400.82191780821915,93.8661404839824L401.57534246575347,95.72891777735002L402.32876712328766,98.69577279778964L403.0821917808219,89.31677405473967L403.83561643835617,78.24768709871024L406.09589041095893,91.02667904743572L406.8493150684931,93.72176108890378L407.6027397260274,92.12509483744581L408.35616438356163,87.65499552706977L411.36986301369865,87.11144956912663L412.12328767123284,86.46032680700726L412.87671232876716,78.30996840639123L413.63013698630135,75.22704367618256L416.64383561643837,68.40440951658387L417.3972602739726,66.89267232105453L418.1506849315069,60.98444099695393L418.90410958904107,43.981644000045314L419.6575342465754,25.869107339002895L421.9178082191781,45.35466373755791L422.67123287671234,34.526209106659586L423.42465753424653,33.119217746775554L424.17808219178085,35.7831591344031L424.9315068493151,41.116703846720114L427.94520547945206,35.91055271829601L428.69863013698625,34.240281285033255L429.45205479452056,35.78599010293403L430.20547945205476,35.31888029532669L432.4657534246575,25.648291793588452L433.2191780821918,25.00000000000001L433.972602739726,30.359023429095643L434.7260273972603,38.492396018525945L435.4794520547945,50.3541541632224L437.73972602739724,37.25243180196812L438.4931506849315,27.915897586882444L439.24657534246575,33.03995062790888L440,34.370505837457166L440.75342465753425,33.73636888652348L443.013698630137,30.56851510038623L443.7671232876712,34.52054716959769L444.52054794520546,47.157990691775495L445.2739726027397,45.22160821660307L446.027397260274,43.9589962517977L449.04109589041093,49.59262362839577L449.79452054794524,49.04624670192169L450.54794520547944,52.09519980975897L451.3013698630137,53.81642867657891L453.56164383561645,72.72729846335034L454.3150684931507,77.16059518282398L455.06849315068496,64.93647306616546L455.82191780821915,81.86566488126921L456.57534246575347,83.76807573407017L458.83561643835617,71.61472783068548L459.5890410958904,80.6709961612067L460.3424657534246,90.08113555809716L461.09589041095893,99.07229161240645L461.8493150684932,105.72223669161697L464.1095890410959,115.61647170730052L464.86301369863014,84.31162169201329L465.61643835616434,85.87431632109984L466.36986301369865,76.94544157447147L467.12328767123284,78.60722010214135L469.3835616438356,74.58441381965602L470.13698630136986,83.37740207679857L470.8904109589041,76.31979752913071L471.64383561643837,90.09245943222102L472.39726027397256,89.6083638134279L474.6575342465753,85.32510842609476L475.4109589041096,87.54458775436255L476.16438356164383,96.57254639957425L476.9178082191781,93.70760624624901L477.67123287671234,99.84514602135687L479.9315068493151,101.94572467132461L480.6849315068493,95.05797823551396L481.43835616438355,85.91111891200221L482.1917808219178,87.66065746413167L485.2054794520548,79.36591966843703L485.958904109589,79.20455446217264L486.7123287671233,85.05050447859226L487.4657534246575,81.41837185337853L488.2191780821918,83.3377685173652L490.4794520547945,76.27167106410448L491.2328767123288,59.1896069483292L491.98630136986304,67.70799125796923L492.73972602739724,65.83389009047778L493.49315068493155,65.57061001709911L495.7534246575342,72.69049587244793L496.5068493150685,71.45619359295206L497.2602739726027,64.34196967466515L498.013698630137,71.2580257957853L498.76712328767127,68.50915535222916L501.027397260274,66.0179030449898L501.7808219178082,75.49032374956124L502.5342465753424,78.4175452105675L503.28767123287673,83.34343045442711L504.04109589041093,74.15976854001292L506.3013698630137,81.10696531497362L507.05479452054794,84.30595975495142L507.8082191780822,85.05899738418512L508.56164383561645,87.15391409709096L509.31506849315065,84.65416888425874L511.5753424657534,96.92075552888157L512.3287671232877,100.2726222695309L513.082191780822,108.00399732756574L513.8356164383562,113.15636005390166L514.5890410958904,108.04646185553005L517.6027397260274,111.40682150177224L518.3561643835617,115.48624715487668L519.1095890410959,108.8844285406924L519.8630136986301,110.55469997395514L523.6301369863014,99.72624534305682L524.3835616438356,96.40835022477894L525.1369863013699,98.00218550770595L528.1506849315068,98.37587335379185L528.9041095890411,103.6924322549231L529.6575342465753,112.83079867284196L530.4109589041096,105.41083015321209L532.6712328767123,103.68960128639215L533.4246575342465,104.125570440159L534.1780821917808,105.4872663035478L534.931506849315,102.27694798944617L535.6849315068494,102.34206026565813L537.945205479452,100.13390481151413L538.6986301369864,105.32307012875248L539.4520547945206,103.76320646819693L540.9589041095891,98.54290049711813L543.2191780821918,99.24498069279466L543.9726027397261,98.42966175587998L544.7260273972603,89.12709916316574L545.4794520547946,82.54509732869813L546.2328767123288,84.79571731080641L548.4931506849315,80.02553533614926L549.2465753424657,82.2789862867885L550,82.57906895106957" stroke="#00aedb" stroke-width="2"/></g><g class="mark-line role-mark layer_1_marks" clip-path="url(#clip2)" role="graphics-object" aria-roledescription="line mark container"><path aria-label="Time: Jun 30, 2019; sentiment: 0.0377358490566" role="graphics-symbol" aria-roledescription="line mark" d="M0,265.5660377358491L0.7534246575342466,289.1509433962264L1.5068493150684932,251.41509433962264L3.0136986301369864,265.5660377358491L5.273972602739726,260.8490566037736L6.027397260273973,265.5660377358491L6.780821917808219,260.8490566037736L7.534246575342466,265.5660377358491L8.287671232876713,279.71698113207543L10.547945205479452,279.71698113207543L11.301369863013697,256.1320754716981L12.054794520547945,275L12.808219178082192,279.71698113207543L13.561643835616438,265.5660377358491L15.821917808219178,279.71698113207543L16.575342465753426,275L17.328767123287673,265.5660377358491L18.082191780821915,260.8490566037736L18.835616438356162,260.8490566037736L21.095890410958905,275L21.84931506849315,270.2830188679245L22.602739726027394,270.2830188679245L23.356164383561644,265.5660377358491L24.10958904109589,260.8490566037736L26.36986301369863,256.1320754716981L27.123287671232877,275L27.876712328767123,270.2830188679245L28.63013698630137,270.2830188679245L29.383561643835616,270.2830188679245L31.643835616438356,251.41509433962264L32.397260273972606,289.1509433962264L33.15068493150685,279.71698113207543L33.90410958904109,275L34.657534246575345,279.71698113207543L36.917808219178085,260.8490566037736L37.671232876712324,270.2830188679245L38.42465753424658,265.5660377358491L39.178082191780824,260.8490566037736L39.93150684931506,279.71698113207543L42.19178082191781,260.8490566037736L42.945205479452056,260.8490566037736L43.6986301369863,275L44.45205479452055,265.5660377358491L45.20547945205479,270.2830188679245L48.21917808219178,279.71698113207543L48.97260273972603,270.2830188679245L49.726027397260275,265.5660377358491L50.47945205479452,275L52.73972602739726,270.2830188679245L53.49315068493151,275L54.24657534246575,275L55,270.2830188679245L55.75342465753425,265.5660377358491L58.013698630136986,260.8490566037736L58.76712328767123,289.1509433962264L59.52054794520548,270.2830188679245L60.273972602739725,251.41509433962264L61.02739726027397,265.5660377358491L63.28767123287671,270.2830188679245L64.04109589041096,275L64.79452054794521,275L65.54794520547945,260.8490566037736L66.3013698630137,270.2830188679245L69.31506849315069,279.71698113207543L70.06849315068493,270.2830188679245L70.82191780821918,284.4339622641509L71.57534246575342,284.4339622641509L74.58904109589041,270.2830188679245L75.34246575342465,270.2830188679245L79.10958904109589,265.5660377358491L79.86301369863013,260.8490566037736L80.6164383561644,270.2830188679245L81.36986301369863,265.5660377358491L82.12328767123287,279.71698113207543L84.38356164383562,275L85.13698630136986,260.8490566037736L85.89041095890411,265.5660377358491L86.64383561643835,279.71698113207543L87.3972602739726,256.1320754716981L89.65753424657534,265.5660377358491L90.41095890410958,265.5660377358491L91.16438356164385,260.8490566037736L91.91780821917808,251.41509433962264L92.67123287671232,270.2830188679245L94.93150684931507,256.1320754716981L95.68493150684932,284.4339622641509L96.43835616438356,265.5660377358491L97.1917808219178,260.8490566037736L97.94520547945206,265.5660377358491L100.20547945205479,270.2830188679245L100.95890410958904,260.8490566037736L101.71232876712328,275L102.46575342465754,270.2830188679245L103.21917808219179,279.71698113207543L105.47945205479452,260.8490566037736L106.23287671232877,279.71698113207543L106.98630136986301,275L107.73972602739725,275L108.4931506849315,284.4339622641509L110.75342465753425,265.5660377358491L111.5068493150685,256.1320754716981L112.26027397260273,275L113.76712328767124,270.2830188679245L116.02739726027397,284.4339622641509L116.78082191780821,275L117.53424657534246,275L118.28767123287672,265.5660377358491L119.04109589041096,260.8490566037736L121.3013698630137,241.9811320754717L122.05479452054794,275L122.8082191780822,260.8490566037736L123.56164383561644,256.1320754716981L124.31506849315068,275L126.57534246575342,260.8490566037736L127.32876712328766,275L128.08219178082192,279.71698113207543L128.83561643835617,260.8490566037736L129.58904109589042,293.8679245283019L131.84931506849315,251.41509433962264L132.6027397260274,284.4339622641509L134.1095890410959,270.2830188679245L134.86301369863014,270.2830188679245L137.12328767123287,270.2830188679245L137.87671232876713,265.5660377358491L139.38356164383563,260.8490566037736L140.13698630136986,260.8490566037736L142.3972602739726,270.2830188679245L143.15068493150685,270.2830188679245L143.9041095890411,270.2830188679245L144.65753424657532,260.8490566037736L145.4109589041096,279.71698113207543L147.67123287671234,270.2830188679245L148.42465753424656,298.5849056603774L149.17808219178082,270.2830188679245L149.93150684931507,265.5660377358491L150.6849315068493,279.71698113207543L153.6986301369863,265.5660377358491L154.45205479452056,275L155.2054794520548,256.1320754716981L155.95890410958904,256.1320754716981L158.21917808219177,251.41509433962264L158.97260273972603,246.69811320754715L159.72602739726025,275L160.47945205479454,270.2830188679245L161.2328767123288,284.4339622641509L163.4931506849315,265.5660377358491L164.24657534246575,251.41509433962264L165,256.1320754716981L165.75342465753423,270.2830188679245L166.50684931506848,246.69811320754715L168.76712328767124,260.8490566037736L169.5205479452055,279.71698113207543L170.27397260273972,265.5660377358491L171.02739726027397,260.8490566037736L171.78082191780823,265.5660377358491L174.7945205479452,270.2830188679245L175.54794520547946,260.8490566037736L176.30136986301372,256.1320754716981L177.05479452054794,270.2830188679245L179.31506849315068,260.8490566037736L180.06849315068493,241.9811320754717L180.82191780821915,270.2830188679245L181.5753424657534,223.11320754716982L182.3287671232877,227.83018867924528L184.58904109589042,279.71698113207543L185.34246575342465,265.5660377358491L186.0958904109589,251.41509433962264L186.84931506849315,246.69811320754715L187.60273972602738,237.26415094339623L189.86301369863014,213.67924528301887L190.6164383561644,241.9811320754717L191.36986301369865,260.8490566037736L192.12328767123287,208.9622641509434L192.87671232876713,199.52830188679246L195.13698630136986,237.26415094339623L195.8904109589041,251.41509433962264L196.64383561643834,256.1320754716981L197.39726027397262,251.41509433962264L198.15068493150687,265.5660377358491L200.41095890410958,223.11320754716982L201.16438356164383,260.8490566037736L201.91780821917808,213.67924528301887L202.6712328767123,213.67924528301887L203.42465753424656,270.2830188679245L205.68493150684932,237.26415094339623L206.43835616438358,241.9811320754717L207.1917808219178,279.71698113207543L207.94520547945206,237.26415094339623L208.6986301369863,227.83018867924528L210.95890410958904,260.8490566037736L211.71232876712327,223.11320754716982L212.46575342465755,223.11320754716982L213.2191780821918,241.9811320754717L216.23287671232876,246.69811320754715L216.986301369863,232.54716981132074L217.73972602739724,223.11320754716982L218.4931506849315,223.11320754716982L219.24657534246575,237.26415094339623L221.5068493150685,208.9622641509434L222.26027397260273,237.26415094339623L223.013698630137,237.26415094339623L223.76712328767124,265.5660377358491L224.52054794520546,223.11320754716982L226.78082191780823,270.2830188679245L227.53424657534248,227.83018867924528L228.28767123287673,246.69811320754715L229.04109589041096,227.83018867924528L229.7945205479452,208.9622641509434L232.05479452054794,256.1320754716981L232.80821917808217,204.24528301886792L233.56164383561642,246.69811320754715L234.3150684931507,180.66037735849056L235.06849315068493,260.8490566037736L237.32876712328766,227.83018867924528L238.08219178082192,194.81132075471697L238.83561643835617,218.39622641509433L239.5890410958904,227.83018867924528L240.34246575342465,275L242.6027397260274,180.66037735849056L243.35616438356166,194.81132075471697L244.1095890410959,251.41509433962264L244.86301369863014,260.8490566037736L245.6164383561644,204.24528301886792L248.63013698630135,190.0943396226415L249.38356164383563,241.9811320754717L250.1369863013699,265.5660377358491L250.8904109589041,256.1320754716981L253.15068493150685,213.67924528301887L253.9041095890411,223.11320754716982L254.65753424657532,204.24528301886792L255.41095890410958,241.9811320754717L256.16438356164383,237.26415094339623L258.4246575342466,208.9622641509434L259.17808219178085,227.83018867924528L259.93150684931504,246.69811320754715L260.6849315068493,109.90566037735854L261.43835616438355,241.9811320754717L263.6986301369863,180.66037735849056L264.45205479452056,213.67924528301887L265.2054794520548,237.26415094339623L265.95890410958907,241.9811320754717L266.71232876712327,232.54716981132074L268.972602739726,190.0943396226415L269.7260273972603,166.50943396226415L270.47945205479454,190.0943396226415L271.23287671232873,232.54716981132074L271.98630136986304,227.83018867924528L274.24657534246575,237.26415094339623L275,237.26415094339623L275.75342465753425,223.11320754716982L276.5068493150685,256.1320754716981L279.52054794520546,223.11320754716982L280.2739726027397,227.83018867924528L281.027397260274,208.9622641509434L281.7808219178082,232.54716981132074L282.5342465753425,265.5660377358491L284.7945205479452,199.52830188679246L285.5479452054795,232.54716981132074L286.3013698630137,246.69811320754715L287.05479452054794,208.9622641509434L287.8082191780822,237.26415094339623L290.06849315068496,213.67924528301887L290.8219178082192,204.24528301886792L291.5753424657534,265.5660377358491L292.3287671232877,199.52830188679246L293.0821917808219,256.1320754716981L295.3424657534247,223.11320754716982L296.0958904109589,293.8679245283019L296.8493150684931,218.39622641509433L297.60273972602744,241.9811320754717L298.35616438356163,241.9811320754717L300.6164383561644,227.83018867924528L301.3698630136986,246.69811320754715L302.1232876712329,194.81132075471697L302.8767123287671,232.54716981132074L303.63013698630135,218.39622641509433L305.8904109589041,227.83018867924528L306.64383561643837,232.54716981132074L307.3972602739726,180.66037735849056L308.1506849315068,232.54716981132074L308.9041095890411,199.52830188679246L311.16438356164383,270.2830188679245L311.9178082191781,256.1320754716981L312.67123287671234,246.69811320754715L313.4246575342466,218.39622641509433L314.17808219178085,213.67924528301887L316.43835616438355,213.67924528301887L317.1917808219178,208.9622641509434L317.94520547945206,232.54716981132074L318.6986301369863,241.9811320754717L319.4520547945205,223.11320754716982L321.71232876712327,171.22641509433964L322.4657534246576,204.24528301886792L323.2191780821918,208.9622641509434L323.972602739726,237.26415094339623L324.7260273972602,237.26415094339623L327.7397260273973,218.39622641509433L328.4931506849315,218.39622641509433L329.2465753424658,223.11320754716982L330,213.67924528301887L332.26027397260276,223.11320754716982L333.01369863013696,251.41509433962264L333.7671232876712,275L334.5205479452055,227.83018867924528L335.2739726027397,227.83018867924528L337.5342465753425,223.11320754716982L338.2876712328767,232.54716981132074L339.041095890411,251.41509433962264L339.7945205479452,227.83018867924528L340.54794520547944,275L342.8082191780822,279.71698113207543L343.56164383561645,246.69811320754715L344.3150684931507,270.2830188679245L345.0684931506849,218.39622641509433L345.8219178082192,232.54716981132074L348.0821917808219,241.9811320754717L348.83561643835617,204.24528301886792L349.5890410958904,161.79245283018872L350.3424657534247,246.69811320754715L351.09589041095893,251.41509433962264L353.35616438356163,256.1320754716981L354.1095890410959,251.41509433962264L354.86301369863014,251.41509433962264L355.6164383561644,260.8490566037736L356.3698630136986,256.1320754716981L358.63013698630135,256.1320754716981L359.38356164383566,265.5660377358491L360.13698630136986,260.8490566037736L360.8904109589041,256.1320754716981L361.6438356164383,246.69811320754715L363.90410958904107,213.67924528301887L364.6575342465754,232.54716981132074L365.4109589041096,270.2830188679245L366.16438356164383,256.1320754716981L366.9178082191781,289.1509433962264L369.17808219178085,237.26415094339623L369.93150684931504,251.41509433962264L370.6849315068493,232.54716981132074L371.43835616438355,270.2830188679245L372.1917808219178,251.41509433962264L374.45205479452056,237.26415094339623L375.20547945205476,265.5660377358491L375.95890410958907,237.26415094339623L376.71232876712327,223.11320754716982L377.4657534246575,241.9811320754717L379.7260273972603,260.8490566037736L380.47945205479454,237.26415094339623L381.2328767123288,232.54716981132074L381.986301369863,204.24528301886792L382.7397260273973,218.39622641509433L385,246.69811320754715L385.75342465753425,251.41509433962264L386.5068493150685,152.35849056603777L388.013698630137,194.81132075471697L390.2739726027397,289.1509433962264L391.027397260274,157.07547169811323L391.7808219178082,185.37735849056605L392.5342465753425,232.54716981132074L393.2876712328767,251.41509433962264L395.54794520547944,227.83018867924528L396.30136986301375,171.22641509433964L397.05479452054794,265.5660377358491L397.8082191780822,218.39622641509433L398.5616438356164,232.54716981132074L400.82191780821915,260.8490566037736L401.57534246575347,246.69811320754715L402.32876712328766,190.0943396226415L403.0821917808219,232.54716981132074L403.83561643835617,204.24528301886792L406.09589041095893,218.39622641509433L406.8493150684931,232.54716981132074L407.6027397260274,223.11320754716982L408.35616438356163,213.67924528301887L411.36986301369865,265.5660377358491L412.12328767123284,246.69811320754715L412.87671232876716,185.37735849056605L413.63013698630135,265.5660377358491L416.64383561643837,256.1320754716981L417.3972602739726,260.8490566037736L418.1506849315069,213.67924528301887L418.90410958904107,204.24528301886792L419.6575342465754,232.54716981132074L421.9178082191781,232.54716981132074L422.67123287671234,237.26415094339623L423.42465753424653,232.54716981132074L424.17808219178085,241.9811320754717L424.9315068493151,218.39622641509433L427.94520547945206,175.9433962264151L428.69863013698625,227.83018867924528L429.45205479452056,237.26415094339623L430.20547945205476,227.83018867924528L432.4657534246575,208.9622641509434L433.2191780821918,227.83018867924528L433.972602739726,190.0943396226415L434.7260273972603,48.584905660377366L435.4794520547945,128.77358490566039L437.73972602739724,204.24528301886792L438.4931506849315,29.71698113207548L439.24657534246575,25.00000000000001L440,157.07547169811323L440.75342465753425,175.9433962264151L443.013698630137,204.24528301886792L443.7671232876712,218.39622641509433L444.52054794520546,67.45283018867929L445.2739726027397,171.22641509433964L446.027397260274,213.67924528301887L449.04109589041093,190.0943396226415L449.79452054794524,208.9622641509434L450.54794520547944,208.9622641509434L451.3013698630137,171.22641509433964L453.56164383561645,142.92452830188682L454.3150684931507,190.0943396226415L455.06849315068496,157.07547169811323L455.82191780821915,161.79245283018872L456.57534246575347,190.0943396226415L458.83561643835617,194.81132075471697L459.5890410958904,213.67924528301887L460.3424657534246,194.81132075471697L461.09589041095893,166.50943396226415L461.8493150684932,157.07547169811323L464.1095890410959,194.81132075471697L464.86301369863014,199.52830188679246L465.61643835616434,237.26415094339623L466.36986301369865,265.5660377358491L467.12328767123284,175.9433962264151L469.3835616438356,251.41509433962264L470.13698630136986,218.39622641509433L470.8904109589041,265.5660377358491L471.64383561643837,223.11320754716982L472.39726027397256,227.83018867924528L474.6575342465753,260.8490566037736L475.4109589041096,256.1320754716981L476.16438356164383,232.54716981132074L476.9178082191781,152.35849056603777L477.67123287671234,208.9622641509434L479.9315068493151,232.54716981132074L480.6849315068493,218.39622641509433L481.43835616438355,223.11320754716982L482.1917808219178,275L485.2054794520548,256.1320754716981L485.958904109589,227.83018867924528L486.7123287671233,232.54716981132074L487.4657534246575,270.2830188679245L488.2191780821918,246.69811320754715L490.4794520547945,241.9811320754717L491.2328767123288,223.11320754716982L491.98630136986304,147.64150943396228L492.73972602739724,256.1320754716981L493.49315068493155,251.41509433962264L495.7534246575342,246.69811320754715L496.5068493150685,246.69811320754715L497.2602739726027,218.39622641509433L498.013698630137,232.54716981132074L498.76712328767127,251.41509433962264L501.027397260274,284.4339622641509L501.7808219178082,246.69811320754715L502.5342465753424,251.41509433962264L503.28767123287673,246.69811320754715L504.04109589041093,241.9811320754717L506.3013698630137,270.2830188679245L507.05479452054794,270.2830188679245L507.8082191780822,270.2830188679245L508.56164383561645,279.71698113207543L509.31506849315065,279.71698113207543L511.5753424657534,265.5660377358491L512.3287671232877,275L513.082191780822,275L513.8356164383562,256.1320754716981L514.5890410958904,275L517.6027397260274,260.8490566037736L518.3561643835617,265.5660377358491L519.1095890410959,270.2830188679245L519.8630136986301,284.4339622641509L523.6301369863014,265.5660377358491L524.3835616438356,279.71698113207543L525.1369863013699,279.71698113207543L528.1506849315068,270.2830188679245L528.9041095890411,260.8490566037736L529.6575342465753,260.8490566037736L530.4109589041096,275L532.6712328767123,270.2830188679245L533.4246575342465,270.2830188679245L534.1780821917808,270.2830188679245L534.931506849315,279.71698113207543L535.6849315068494,275L537.945205479452,279.71698113207543L538.6986301369864,279.71698113207543L539.4520547945206,270.2830188679245L540.9589041095891,270.2830188679245L543.2191780821918,260.8490566037736L543.9726027397261,270.2830188679245L544.7260273972603,265.5660377358491L545.4794520547946,284.4339622641509L546.2328767123288,275L548.4931506849315,256.1320754716981L549.2465753424657,279.71698113207543L550,270.2830188679245" stroke="#d11141" stroke-width="2"/></g></g><path class="foreground" aria-hidden="true" d="" display="none"/></g></g></g><defs><clipPath id="clip1"><rect x="0" y="0" width="550" height="300"/></clipPath><clipPath id="clip2"><rect x="0" y="0" width="550" height="300"/></clipPath></defs></svg>